<?xml version="1.0" encoding="utf-8"?>
<!-- Generator: Adobe Illustrator 19.1.1, SVG Export Plug-In . SVG Version: 6.00 Build 0)  -->
<svg version="1.1" id="Warstwa_1" xmlns="http://www.w3.org/2000/svg" xmlns:xlink="http://www.w3.org/1999/xlink" x="0px" y="0px"
	 viewBox="167.5 393.7 240 40.5" style="enable-background:new 167.5 393.7 240 40.5;" xml:space="preserve">
<style type="text/css">
	.st0{fill:#11203D;}
</style>
<path class="st0" d="M184.2,427"/>
<path class="st0" d="M167.5,393.7c0.8,1.7,2.5,2.7,4.4,2.7h1.4c5.3,0,14,0,19.2,0c0.2,0,0.2,0,0.3,0c0.3,0,0.5,0,0.8,0.1
	c1,0.1,1.9,0.4,2.8,0.8c0.9,0.4,1.7,0.9,2.5,1.5c0.8,0.7,1.5,1.4,2.1,2.3c0.6,0.9,1,1.9,1.3,3c0.3,1.1,0.4,2.3,0.3,3.5
	c-0.1,0.9-0.3,1.7-0.6,2.5c-0.1,0.2-0.2,0.5-0.3,0.8c0,0.1-0.1,0.2-0.1,0.3l-10.8,21.8c-0.2,0.4-0.5,0.7-0.9,0.9
	c-1,0.5-2.3,0.1-2.7-0.9l-3-6c0.5,1,1.7,1.4,2.7,0.9c0.4-0.2,0.7-0.5,0.9-0.9l9-18.1c0.1-0.2,0.2-0.3,0.2-0.5
	c0.2-0.4,0.2-0.9,0.3-1.3c0-0.5,0-0.9-0.1-1.4c-0.1-0.5-0.3-0.9-0.5-1.4c-0.2-0.5-0.6-0.9-1-1.2c-0.4-0.4-0.9-0.7-1.4-0.9
	c-0.4-0.2-0.9-0.3-1.3-0.3c-0.2,0-0.4,0-0.6,0c-6,0-11.9,0-17.9,0l0,0c-1.9,0-3.6-1.1-4.4-2.7l0,0c-0.3-0.9-0.7-1.6-0.9-2.1
	L167.5,393.7 M182.4,423.8l-3-6.1c0.5,1,1.7,1.4,2.7,0.9c0.4-0.2,0.7-0.5,0.9-0.9l3.5-7c0.1-0.1,0-0.3,0-0.4
	c-0.1-0.1-0.2-0.2-0.4-0.2c-1.4,0-4.9,0-7.4,0l0,0c-1.9,0-3.6-1.1-4.4-2.7l0,0c-0.4-0.8-0.8-1.6-1-2.1l-1.6-3.3
	c0.8,1.7,2.5,2.7,4.4,2.7h1.9c4.4,0,10.5,0,14.4,0c0.1,0,0.1,0,0.2,0c0.2,0,0.3,0.1,0.5,0.1c0.2,0.1,0.5,0.2,0.6,0.5
	c0.2,0.2,0.4,0.5,0.5,0.9c0,0.2,0,0.4,0,0.6c0,0.2,0,0.3-0.1,0.5c0,0.1,0,0.2-0.1,0.2l-7.9,16.3c-0.2,0.4-0.5,0.7-0.9,0.9
	C184.2,425.3,182.9,424.8,182.4,423.8z"/>
<path class="st0" d="M231.6,403.9c-1.8-1.3-4.6-2-8.4-2c-1,0-2.1,0-3.3,0.1c-1.2,0.1-2.4,0.2-3.6,0.3V428h5.4v-9.2h1.9
	c1.4,0,2.8-0.2,4.1-0.5c1.3-0.3,2.4-0.8,3.4-1.5c1-0.7,1.8-1.6,2.3-2.8s0.9-2.6,0.9-4.3C234.3,407.2,233.4,405.2,231.6,403.9z
	 M227.3,414c-1,0.7-2.5,1.1-4.4,1.1h-1.3v-9.3c0.6-0.1,1.3-0.1,2.1-0.1c1.5,0,2.7,0.3,3.7,1c0.9,0.7,1.4,1.8,1.4,3.4
	C228.8,411.9,228.3,413.2,227.3,414z"/>
<path class="st0" d="M251.8,416.3c0-1.2-0.1-2.2-0.4-3.1c-0.2-0.9-0.7-1.6-1.3-2.2c-0.6-0.6-1.4-1-2.4-1.3c-1-0.3-2.2-0.4-3.6-0.4
	c-1,0-2,0.1-2.9,0.2c-0.9,0.2-1.7,0.4-2.4,0.7c-0.7,0.3-1.3,0.6-1.7,0.9c-0.4,0.3-0.6,0.7-0.6,1c0,0.2,0.1,0.7,0.3,1.2
	c0.2,0.5,0.5,1,0.9,1.4c0.8-0.5,1.7-0.9,2.6-1.2c0.9-0.4,1.9-0.5,3-0.5c1.2,0,2.1,0.2,2.6,0.6c0.5,0.4,0.8,1.1,0.8,2.1v0.7
	c-0.2,0-0.5,0-0.9,0c-0.3,0-0.6,0-0.9,0c-0.9,0-2,0.2-3.1,0.3c-1.1,0.2-2.2,0.5-3.2,1c-1,0.5-1.8,1.1-2.4,2
	c-0.7,0.8-0.9,1.9-0.9,3.2c0,1.1,0.2,2,0.5,2.7c0.4,0.7,0.8,1.3,1.4,1.8c0.6,0.5,1.2,0.7,1.9,0.9c0.7,0.2,1.4,0.3,2.1,0.3
	c1.4,0,2.5-0.2,3.4-0.6s1.7-0.9,2.3-1.5c0.1,0.7,0.5,1.2,0.9,1.6c0.5,0.4,1.2,0.5,2.1,0.5c0.5,0,0.9,0,1.3-0.1
	c0.4-0.1,0.9-0.2,1.3-0.4c-0.6-0.9-0.9-2.4-0.9-4.4L251.8,416.3L251.8,416.3z M246.8,423c0,0.2-0.1,0.5-0.3,0.7s-0.5,0.5-0.8,0.7
	c-0.3,0.2-0.7,0.4-1.2,0.5s-0.9,0.2-1.4,0.2c-1,0-1.7-0.2-2.1-0.7c-0.4-0.5-0.6-1.1-0.6-1.8c0-0.7,0.2-1.2,0.5-1.6
	c0.3-0.4,0.7-0.7,1.2-1c0.5-0.2,1.1-0.4,1.7-0.5c0.7-0.1,1.3-0.2,1.9-0.2c0.2,0,0.4,0,0.5,0c0.2,0,0.4,0,0.5,0L246.8,423L246.8,423z
	"/>
<path class="st0" d="M259.6,410.1c-0.6-0.3-1.4-0.5-2.2-0.5c-0.3,0-0.5,0-0.7,0c-0.2,0-0.4,0-0.5,0l-0.5,0.1V428h5.3v-11.9
	c0-0.7,0.3-1.2,0.8-1.7c0.5-0.5,1.2-0.7,2.1-0.7c0.6,0,1.1,0.1,1.6,0.3s0.9,0.5,1.4,0.8c0.3-0.5,0.6-1.1,0.9-1.9
	c0.3-0.7,0.5-1.4,0.5-1.9c0-0.4-0.1-0.7-0.3-0.9c-0.2-0.2-0.4-0.5-0.7-0.6c-0.3-0.1-0.6-0.2-1-0.3s-0.7-0.1-1-0.1
	c-0.5,0-1,0.1-1.5,0.2c-0.5,0.2-0.9,0.3-1.2,0.6s-0.7,0.5-0.9,0.8c-0.3,0.3-0.5,0.5-0.7,0.8C260.6,410.9,260.2,410.4,259.6,410.1z"
	/>
<path class="st0" d="M272.1,427.7c0.9,0.6,2.2,0.9,3.8,0.9c0.8,0,1.6-0.1,2.3-0.2c0.7-0.2,1.3-0.4,1.8-0.7c0.5-0.3,0.9-0.6,1.1-0.9
	c0.3-0.3,0.4-0.7,0.4-1c0-0.4-0.1-0.7-0.3-1.1s-0.5-0.9-0.9-1.5c-0.1,0.1-0.2,0.2-0.4,0.3c-0.2,0.2-0.4,0.3-0.7,0.5
	c-0.3,0.1-0.6,0.3-0.9,0.4c-0.3,0.1-0.7,0.2-1,0.2c-1.5,0-2.3-0.9-2.3-2.7v-8.2h5.5v-3.9H275V407c0-0.7-0.1-1.1-0.3-1.6
	s-0.5-0.7-0.8-0.9c-0.3-0.2-0.7-0.4-1.1-0.5c-0.4-0.1-0.8-0.1-1.3-0.1c-0.2,0-0.4,0-0.6,0s-0.4,0-0.6,0l-0.6,0.1v18
	c0,0.6,0,1.1,0.1,1.7c0,0.6,0.2,1.1,0.4,1.6C270.6,426.3,271.2,427.1,272.1,427.7z"/>
<path class="st0" d="M289,415.5c0-0.6,0.3-1.1,1-1.5c0.7-0.4,1.5-0.6,2.5-0.6c0.7,0,1.2,0.1,1.6,0.3s0.7,0.5,0.8,0.8
	c0.2,0.3,0.3,0.8,0.3,1.3c0,0.5,0,1,0,1.6v10.7h5.3v-11c0-0.7,0-1.4,0-2.1c0-0.7-0.1-1.4-0.2-1.9c-0.2-1.2-0.8-2.1-1.7-2.9
	c-0.9-0.7-2.3-1.1-4.1-1.1c-1.6,0-2.8,0.2-3.7,0.7c-0.9,0.5-1.6,1.1-2.1,1.6c-0.2-0.7-0.5-1.3-1.1-1.6c-0.6-0.3-1.4-0.5-2.2-0.5
	c-0.3,0-0.5,0-0.7,0s-0.4,0-0.5,0l-0.5,0.1v18.3h5.4V415.5z"/>
<path class="st0" d="M310.4,423.4c-0.8-0.9-1.2-2.1-1.4-3.5h11.5c0-0.1,0-0.3,0-0.5c0-0.2,0-0.5,0-0.7c0-0.2,0-0.5,0-0.7
	s0-0.4,0-0.5c0-1.1-0.2-2.1-0.5-3.1c-0.3-1-0.7-1.8-1.4-2.6c-0.7-0.8-1.5-1.4-2.5-1.8c-1-0.5-2.3-0.7-3.7-0.7
	c-1.1,0-2.2,0.2-3.3,0.5c-1.1,0.4-2.1,0.9-2.9,1.7c-0.9,0.8-1.5,1.8-2.1,2.9c-0.5,1.2-0.8,2.6-0.8,4.2c0,2,0.3,3.6,0.9,4.9
	c0.6,1.3,1.3,2.3,2.3,3.1s2,1.3,3.2,1.6c1.2,0.3,2.4,0.5,3.7,0.5c1.4,0,2.5-0.2,3.6-0.5c1-0.3,1.8-0.7,2.3-1.1c0.7-0.5,1-1,1-1.6
	c0-0.4-0.2-0.9-0.5-1.5c-0.3-0.6-0.7-1.1-1-1.5c-0.2,0.2-0.5,0.5-0.8,0.7c-0.3,0.2-0.6,0.5-1,0.7c-0.4,0.2-0.8,0.4-1.4,0.5
	c-0.5,0.1-1.1,0.2-1.7,0.2C312.4,424.8,311.1,424.3,310.4,423.4z M309,416.9c0-1.3,0.3-2.3,0.9-3.1s1.5-1.1,2.6-1.1
	c1.3,0,2.1,0.4,2.6,1.1c0.5,0.8,0.7,1.8,0.7,3H309z"/>
<path class="st0" d="M327.6,410.1c-0.6-0.3-1.4-0.5-2.2-0.5c-0.3,0-0.5,0-0.7,0s-0.4,0-0.5,0l-0.5,0.1V428h5.3v-11.9
	c0-0.7,0.3-1.2,0.8-1.7c0.5-0.5,1.2-0.7,2.1-0.7c0.6,0,1.1,0.1,1.6,0.3c0.5,0.2,0.9,0.5,1.4,0.8c0.3-0.5,0.6-1.1,0.9-1.9
	s0.5-1.4,0.5-1.9c0-0.4-0.1-0.7-0.3-0.9c-0.2-0.2-0.4-0.5-0.7-0.6c-0.3-0.1-0.6-0.2-1-0.3s-0.7-0.1-1-0.1c-0.5,0-1,0.1-1.5,0.2
	s-0.9,0.3-1.2,0.6s-0.7,0.5-0.9,0.8c-0.3,0.3-0.5,0.5-0.7,0.8C328.7,410.9,328.3,410.4,327.6,410.1z"/>
<path class="st0" d="M359.2,402.4c-1-0.2-1.9-0.4-2.7-0.4c-1,0-1.8,0.2-2.3,0.7c-0.6,0.5-1,1.1-1.3,2.1l-5.5,17.7l-5.4-17.6
	c-0.3-0.9-0.7-1.6-1.3-2.1c-0.6-0.5-1.4-0.7-2.4-0.7c-0.6,0-1.2,0-1.7,0.1c-0.5,0.1-0.9,0.2-1.2,0.3l8.8,25.9h6L359.2,402.4z"/>
<path class="st0" d="M366.7,412.7c0-0.7-0.1-1.1-0.3-1.6s-0.5-0.7-0.8-0.9c-0.3-0.2-0.7-0.4-1.1-0.5c-0.4-0.1-0.8-0.1-1.3-0.1
	c-0.4,0-0.8,0-1.2,0s-0.6,0.1-0.6,0.1v15.5c0,1.3,0.3,2.1,0.9,2.6c0.7,0.4,1.5,0.7,2.5,0.7c0.4,0,0.8,0,1.2,0c0.4,0,0.6-0.1,0.7-0.1
	L366.7,412.7L366.7,412.7z M365.9,401.5c-0.6-0.5-1.2-0.8-2-0.8c-0.8,0-1.5,0.2-2.1,0.8c-0.5,0.5-0.8,1.2-0.8,2.1
	c0,0.8,0.3,1.5,0.8,2s1.2,0.8,2.1,0.8c0.8,0,1.5-0.2,2-0.8c0.6-0.5,0.9-1.2,0.9-2C366.7,402.7,366.5,402.1,365.9,401.5z"/>
<path class="st0" d="M375.9,415.5c0-0.6,0.3-1.1,1-1.5c0.7-0.4,1.5-0.6,2.5-0.6c0.7,0,1.2,0.1,1.6,0.3c0.4,0.2,0.7,0.5,0.8,0.8
	c0.2,0.3,0.3,0.8,0.3,1.3c0,0.5,0,1,0,1.6v10.7h5.3v-11c0-0.7,0-1.4,0-2.1c0-0.7-0.1-1.4-0.2-1.9c-0.2-1.2-0.8-2.1-1.7-2.9
	c-0.9-0.7-2.3-1.1-4.1-1.1c-1.6,0-2.8,0.2-3.7,0.7c-0.9,0.5-1.6,1.1-2.1,1.6c-0.2-0.7-0.5-1.3-1.1-1.6c-0.6-0.3-1.4-0.5-2.2-0.5
	c-0.3,0-0.5,0-0.7,0s-0.4,0-0.5,0l-0.5,0.1V428h5.4L375.9,415.5L375.9,415.5z"/>
<path class="st0" d="M397.2,423.4c-0.8-0.9-1.2-2.1-1.4-3.5h11.5c0-0.1,0-0.3,0-0.5c0-0.2,0-0.5,0-0.7c0-0.2,0-0.5,0-0.7
	s0-0.4,0-0.5c0-1.1-0.2-2.1-0.5-3.1c-0.3-1-0.7-1.8-1.4-2.6s-1.5-1.4-2.5-1.8c-1-0.5-2.3-0.7-3.7-0.7c-1.1,0-2.2,0.2-3.3,0.5
	c-1.1,0.4-2.1,0.9-2.9,1.7c-0.9,0.8-1.5,1.8-2.1,2.9c-0.5,1.2-0.8,2.6-0.8,4.2c0,2,0.3,3.6,0.9,4.9c0.6,1.3,1.3,2.3,2.3,3.1
	s2,1.3,3.2,1.6c1.2,0.3,2.4,0.5,3.7,0.5c1.4,0,2.5-0.2,3.6-0.5c1-0.3,1.8-0.7,2.3-1.1c0.7-0.5,1-1,1-1.6c0-0.4-0.2-0.9-0.5-1.5
	c-0.3-0.6-0.7-1.1-1-1.5c-0.2,0.2-0.5,0.5-0.8,0.7c-0.3,0.2-0.6,0.5-1,0.7c-0.4,0.2-0.8,0.4-1.4,0.5c-0.5,0.1-1.1,0.2-1.7,0.2
	C399.3,424.8,398.1,424.3,397.2,423.4z M395.9,416.9c0-1.3,0.3-2.3,0.9-3.1s1.5-1.1,2.6-1.1c1.3,0,2.1,0.4,2.6,1.1
	c0.5,0.8,0.7,1.8,0.7,3H395.9z"/>
</svg>
