<?xml version="1.0" encoding="utf-8"?>
<!-- Generator: Adobe Illustrator 19.1.1, SVG Export Plug-In . SVG Version: 6.00 Build 0)  -->
<svg version="1.1" id="Warstwa_1" xmlns="http://www.w3.org/2000/svg" xmlns:xlink="http://www.w3.org/1999/xlink" x="0px" y="0px"
	 viewBox="167.5 392.7 240 56.6" style="enable-background:new 167.5 392.7 240 56.6;" xml:space="preserve">
<style type="text/css">
	.st0{fill:#11203D;}
</style>
<path class="st0" d="M184.7,425.9"/>
<path class="st0" d="M167.9,392.7c0.8,1.7,2.5,2.8,4.4,2.8h1.4c5.3,0,14,0,19.2,0c0.2,0,0.2,0,0.3,0c0.3,0,0.5,0,0.8,0.1
	c1,0.1,1.9,0.4,2.8,0.8c0.9,0.4,1.7,0.9,2.5,1.5c0.8,0.7,1.5,1.4,2.1,2.3c0.6,0.9,1,1.9,1.3,3c0.3,1.1,0.4,2.3,0.3,3.5
	c-0.1,0.9-0.3,1.7-0.6,2.5c-0.1,0.2-0.2,0.5-0.3,0.8c0,0.1-0.1,0.2-0.1,0.3l-10.8,21.8c-0.2,0.4-0.5,0.7-0.9,0.9
	c-1,0.5-2.3,0.1-2.8-0.9l-3-6c0.5,1,1.7,1.4,2.8,0.9c0.4-0.2,0.7-0.5,0.9-0.9l9-18.1c0.1-0.2,0.2-0.3,0.2-0.5
	c0.2-0.4,0.2-0.9,0.3-1.3c0-0.5,0-0.9-0.1-1.4c-0.1-0.5-0.3-0.9-0.5-1.4c-0.2-0.5-0.6-0.9-1-1.2c-0.4-0.4-0.9-0.7-1.4-0.9
	c-0.4-0.2-0.9-0.3-1.3-0.3c-0.2,0-0.4,0-0.6,0c-6,0-11.9,0-17.9,0l0,0c-1.9,0-3.6-1.1-4.4-2.8l0,0c-0.3-0.9-0.7-1.6-0.9-2.1
	L167.9,392.7 M182.8,422.7l-3-6.1c0.5,1,1.7,1.4,2.8,0.9c0.4-0.2,0.7-0.5,0.9-0.9l3.5-7c0.1-0.1,0-0.3,0-0.4
	c-0.1-0.1-0.2-0.2-0.4-0.2c-1.4,0-4.9,0-7.4,0l0,0c-1.9,0-3.6-1.1-4.4-2.8l0,0c-0.4-0.8-0.8-1.6-1-2.1l-1.6-3.3
	c0.8,1.7,2.5,2.8,4.4,2.8h1.9c4.4,0,10.6,0,14.4,0c0.1,0,0.1,0,0.2,0c0.2,0,0.3,0.1,0.5,0.1c0.2,0.1,0.5,0.2,0.6,0.5
	c0.2,0.2,0.4,0.5,0.5,0.9c0,0.2,0,0.4,0,0.6c0,0.2,0,0.3-0.1,0.5c0,0.1,0,0.2-0.1,0.2l-7.9,16.3c-0.2,0.4-0.5,0.7-0.9,0.9
	C184.6,424.2,183.4,423.7,182.8,422.7z"/>
<path class="st0" d="M232.1,402.8c-1.8-1.3-4.6-2-8.4-2c-1,0-2.1,0-3.3,0.1c-1.2,0.1-2.4,0.2-3.6,0.3v25.8h5.4v-9.2h1.9
	c1.4,0,2.8-0.2,4.1-0.5c1.3-0.3,2.4-0.8,3.4-1.5c1-0.7,1.8-1.6,2.3-2.8c0.6-1.1,0.9-2.6,0.9-4.3
	C234.7,406.1,233.8,404.1,232.1,402.8z M227.7,412.9c-1,0.7-2.5,1.1-4.4,1.1h-1.3v-9.3c0.6-0.1,1.3-0.1,2.1-0.1c1.5,0,2.7,0.3,3.7,1
	c0.9,0.7,1.4,1.8,1.4,3.4C229.2,410.8,228.7,412.2,227.7,412.9z"/>
<path class="st0" d="M252.3,415.2c0-1.2-0.1-2.2-0.4-3.1c-0.2-0.9-0.7-1.6-1.3-2.2c-0.6-0.6-1.4-1-2.4-1.3c-1-0.3-2.2-0.4-3.6-0.4
	c-1,0-2,0.1-2.9,0.2c-0.9,0.2-1.7,0.4-2.4,0.7c-0.7,0.3-1.3,0.6-1.7,0.9c-0.4,0.3-0.6,0.7-0.6,1c0,0.2,0.1,0.7,0.3,1.2
	s0.5,1,0.9,1.4c0.8-0.5,1.7-0.9,2.6-1.2c0.9-0.4,1.9-0.5,3-0.5c1.2,0,2.1,0.2,2.6,0.6s0.8,1.1,0.8,2.1v0.7c-0.2,0-0.5,0-0.9,0
	c-0.3,0-0.6,0-0.9,0c-0.9,0-2,0.2-3.1,0.3c-1.1,0.2-2.2,0.5-3.2,1c-1,0.5-1.8,1.1-2.4,2c-0.7,0.8-0.9,1.9-0.9,3.2
	c0,1.1,0.2,2,0.5,2.7c0.4,0.7,0.8,1.3,1.4,1.8c0.6,0.5,1.2,0.7,1.9,0.9c0.7,0.2,1.4,0.3,2.1,0.3c1.4,0,2.5-0.2,3.4-0.6
	s1.7-0.9,2.3-1.5c0.1,0.7,0.5,1.2,0.9,1.6c0.5,0.4,1.2,0.5,2.1,0.5c0.5,0,0.9,0,1.3-0.1s0.9-0.2,1.3-0.4c-0.6-0.9-0.9-2.4-0.9-4.4
	L252.3,415.2L252.3,415.2z M247.3,422c0,0.2-0.1,0.5-0.3,0.7s-0.5,0.5-0.8,0.7c-0.3,0.2-0.7,0.4-1.2,0.5c-0.5,0.1-0.9,0.2-1.4,0.2
	c-1,0-1.7-0.2-2.1-0.7c-0.4-0.5-0.6-1.1-0.6-1.8c0-0.7,0.2-1.2,0.5-1.6c0.3-0.4,0.7-0.7,1.2-1c0.5-0.2,1.1-0.4,1.7-0.5
	s1.3-0.2,1.9-0.2c0.2,0,0.4,0,0.5,0c0.2,0,0.4,0,0.5,0L247.3,422L247.3,422z"/>
<path class="st0" d="M260.1,409c-0.6-0.3-1.4-0.5-2.2-0.5c-0.3,0-0.5,0-0.7,0c-0.2,0-0.4,0-0.5,0l-0.5,0.1v18.3h5.3V415
	c0-0.7,0.3-1.2,0.8-1.7c0.5-0.5,1.2-0.7,2.1-0.7c0.6,0,1.1,0.1,1.6,0.3c0.5,0.2,0.9,0.5,1.4,0.8c0.3-0.5,0.6-1.1,0.9-1.9
	c0.3-0.7,0.5-1.4,0.5-1.9c0-0.4-0.1-0.7-0.3-0.9c-0.2-0.2-0.4-0.5-0.7-0.6c-0.3-0.1-0.6-0.2-1-0.3c-0.4,0-0.7-0.1-1-0.1
	c-0.5,0-1,0.1-1.5,0.2c-0.5,0.2-0.9,0.3-1.2,0.6c-0.4,0.2-0.7,0.5-0.9,0.8c-0.3,0.3-0.5,0.5-0.7,0.8
	C261.1,409.8,260.7,409.3,260.1,409z"/>
<path class="st0" d="M272.6,426.6c0.9,0.6,2.2,0.9,3.8,0.9c0.8,0,1.6-0.1,2.3-0.2c0.7-0.2,1.3-0.4,1.8-0.7c0.5-0.3,0.9-0.6,1.1-0.9
	c0.3-0.3,0.4-0.7,0.4-1c0-0.4-0.1-0.7-0.3-1.1c-0.2-0.4-0.5-0.9-0.9-1.5c-0.1,0.1-0.2,0.2-0.4,0.3c-0.2,0.2-0.4,0.3-0.7,0.5
	c-0.3,0.1-0.6,0.3-0.9,0.4c-0.3,0.1-0.7,0.2-1,0.2c-1.5,0-2.3-0.9-2.3-2.7v-8.3h5.5v-3.9h-5.5v-2.7c0-0.7-0.1-1.1-0.3-1.6
	c-0.2-0.4-0.5-0.7-0.8-0.9c-0.3-0.2-0.7-0.4-1.1-0.5c-0.4-0.1-0.8-0.1-1.3-0.1c-0.2,0-0.4,0-0.6,0c-0.2,0-0.4,0-0.6,0l-0.6,0.1v18
	c0,0.6,0,1.1,0.1,1.7c0,0.6,0.2,1.1,0.4,1.6C271,425.2,271.7,426,272.6,426.6z"/>
<path class="st0" d="M289.5,414.5c0-0.6,0.3-1.1,1-1.5c0.7-0.4,1.5-0.6,2.5-0.6c0.7,0,1.2,0.1,1.6,0.3c0.4,0.2,0.7,0.5,0.8,0.8
	c0.2,0.3,0.3,0.8,0.3,1.3c0,0.5,0,1,0,1.6V427h5.3v-11c0-0.7,0-1.4,0-2.1s-0.1-1.4-0.2-1.9c-0.2-1.2-0.8-2.1-1.7-2.9
	c-0.9-0.7-2.3-1.1-4.1-1.1c-1.6,0-2.8,0.2-3.7,0.7s-1.6,1.1-2.1,1.6c-0.2-0.7-0.5-1.3-1.1-1.6c-0.6-0.3-1.4-0.5-2.2-0.5
	c-0.3,0-0.5,0-0.7,0c-0.2,0-0.4,0-0.5,0l-0.5,0.1V427h5.4V414.5z"/>
<path class="st0" d="M310.9,422.3c-0.8-0.9-1.2-2.1-1.4-3.5H321c0-0.1,0-0.3,0-0.5c0-0.2,0-0.5,0-0.7s0-0.5,0-0.7c0-0.2,0-0.4,0-0.5
	c0-1.1-0.2-2.1-0.5-3.1c-0.3-1-0.7-1.8-1.4-2.6s-1.5-1.4-2.5-1.8c-1-0.5-2.3-0.7-3.7-0.7c-1.1,0-2.2,0.2-3.3,0.5
	c-1.1,0.4-2.1,0.9-2.9,1.7c-0.9,0.8-1.5,1.8-2.1,2.9c-0.5,1.2-0.8,2.6-0.8,4.2c0,2,0.3,3.6,0.9,4.9c0.6,1.3,1.3,2.3,2.3,3.1
	s2,1.3,3.2,1.6c1.2,0.3,2.4,0.5,3.7,0.5c1.4,0,2.5-0.2,3.6-0.5c1-0.3,1.8-0.7,2.3-1.1c0.7-0.5,1-1,1-1.6c0-0.4-0.2-0.9-0.5-1.5
	c-0.3-0.6-0.7-1.1-1-1.5c-0.2,0.2-0.5,0.5-0.8,0.7s-0.6,0.5-1,0.7c-0.4,0.2-0.8,0.4-1.4,0.5c-0.5,0.1-1.1,0.2-1.7,0.2
	C312.9,423.7,311.6,423.2,310.9,422.3z M309.5,415.8c0-1.3,0.3-2.3,0.9-3.1c0.6-0.7,1.5-1.1,2.6-1.1c1.3,0,2.1,0.4,2.6,1.1
	c0.5,0.8,0.7,1.8,0.7,3H309.5z"/>
<path class="st0" d="M328.1,409c-0.6-0.3-1.4-0.5-2.2-0.5c-0.3,0-0.5,0-0.7,0c-0.2,0-0.4,0-0.5,0l-0.5,0.1v18.3h5.3V415
	c0-0.7,0.3-1.2,0.8-1.7c0.5-0.5,1.2-0.7,2.1-0.7c0.6,0,1.1,0.1,1.6,0.3c0.5,0.2,0.9,0.5,1.4,0.8c0.3-0.5,0.6-1.1,0.9-1.9
	c0.3-0.7,0.5-1.4,0.5-1.9c0-0.4-0.1-0.7-0.3-0.9c-0.2-0.2-0.4-0.5-0.7-0.6c-0.3-0.1-0.6-0.2-1-0.3c-0.4,0-0.7-0.1-1-0.1
	c-0.5,0-1,0.1-1.5,0.2c-0.5,0.2-0.9,0.3-1.2,0.6c-0.4,0.2-0.7,0.5-0.9,0.8c-0.3,0.3-0.5,0.5-0.7,0.8
	C329.2,409.8,328.8,409.3,328.1,409z"/>
<path class="st0" d="M359.8,401.3c-1-0.2-1.9-0.4-2.7-0.4c-1,0-1.8,0.2-2.3,0.7c-0.6,0.5-1,1.1-1.3,2.1l-5.5,17.7l-5.4-17.7
	c-0.3-0.9-0.7-1.6-1.3-2.1c-0.6-0.5-1.4-0.7-2.4-0.7c-0.6,0-1.2,0-1.7,0.1c-0.5,0.1-0.9,0.2-1.2,0.3l8.8,25.9h6L359.8,401.3z"/>
<path class="st0" d="M367.2,411.6c0-0.7-0.1-1.1-0.3-1.6c-0.2-0.4-0.5-0.7-0.8-0.9c-0.3-0.2-0.7-0.4-1.1-0.5
	c-0.4-0.1-0.8-0.1-1.3-0.1c-0.4,0-0.8,0-1.2,0c-0.4,0-0.6,0.1-0.6,0.1v15.5c0,1.3,0.3,2.1,0.9,2.6c0.7,0.4,1.5,0.7,2.5,0.7
	c0.4,0,0.8,0,1.2,0c0.4,0,0.6-0.1,0.7-0.1L367.2,411.6L367.2,411.6z M366.4,400.5c-0.6-0.5-1.2-0.8-2-0.8c-0.8,0-1.5,0.2-2.1,0.8
	c-0.5,0.5-0.8,1.2-0.8,2.1c0,0.8,0.3,1.5,0.8,2s1.2,0.8,2.1,0.8c0.8,0,1.5-0.2,2-0.8c0.6-0.5,0.9-1.2,0.9-2
	C367.3,401.6,367,401,366.4,400.5z"/>
<path class="st0" d="M376.4,414.5c0-0.6,0.3-1.1,1-1.5c0.7-0.4,1.5-0.6,2.5-0.6c0.7,0,1.2,0.1,1.6,0.3c0.4,0.2,0.7,0.5,0.8,0.8
	c0.2,0.3,0.3,0.8,0.3,1.3c0,0.5,0,1,0,1.6V427h5.3v-11c0-0.7,0-1.4,0-2.1s-0.1-1.4-0.2-1.9c-0.2-1.2-0.8-2.1-1.7-2.9
	c-0.9-0.7-2.3-1.1-4.1-1.1c-1.6,0-2.8,0.2-3.7,0.7s-1.6,1.1-2.1,1.6c-0.2-0.7-0.5-1.3-1.1-1.6c-0.6-0.3-1.4-0.5-2.2-0.5
	c-0.3,0-0.5,0-0.7,0c-0.2,0-0.4,0-0.5,0l-0.5,0.1v18.3h5.4L376.4,414.5L376.4,414.5z"/>
<path class="st0" d="M397.8,422.3c-0.8-0.9-1.2-2.1-1.4-3.5H408c0-0.1,0-0.3,0-0.5c0-0.2,0-0.5,0-0.7s0-0.5,0-0.7c0-0.2,0-0.4,0-0.5
	c0-1.1-0.2-2.1-0.5-3.1c-0.3-1-0.7-1.8-1.4-2.6c-0.7-0.8-1.5-1.4-2.5-1.8c-1-0.5-2.3-0.7-3.7-0.7c-1.1,0-2.2,0.2-3.3,0.5
	c-1.1,0.4-2.1,0.9-2.9,1.7c-0.9,0.8-1.5,1.8-2.1,2.9c-0.5,1.2-0.8,2.6-0.8,4.2c0,2,0.3,3.6,0.9,4.9c0.6,1.3,1.3,2.3,2.3,3.1
	c0.9,0.8,2,1.3,3.2,1.6c1.2,0.3,2.4,0.5,3.7,0.5c1.4,0,2.5-0.2,3.6-0.5s1.8-0.7,2.3-1.1c0.7-0.5,1-1,1-1.6c0-0.4-0.2-0.9-0.5-1.5
	c-0.3-0.6-0.7-1.1-1-1.5c-0.2,0.2-0.5,0.5-0.8,0.7c-0.3,0.2-0.6,0.5-1,0.7c-0.4,0.2-0.8,0.4-1.4,0.5c-0.5,0.1-1.1,0.2-1.7,0.2
	C399.8,423.7,398.6,423.2,397.8,422.3z M396.4,415.8c0-1.3,0.3-2.3,0.9-3.1c0.6-0.7,1.5-1.1,2.6-1.1c1.3,0,2.1,0.4,2.6,1.1
	c0.5,0.8,0.7,1.8,0.7,3H396.4z"/>
<path class="st0" d="M223.5,439.2c0,0.7-0.1,1.2-0.3,1.6c-0.2,0.5-0.5,0.8-0.9,1.1c-0.4,0.3-0.8,0.5-1.3,0.6s-1,0.2-1.6,0.2h-0.7
	v3.5h-2.1v-9.9c0.5,0,0.9-0.1,1.4-0.1c0.5,0,0.9,0,1.3,0c1.4,0,2.5,0.2,3.2,0.8S223.5,438.2,223.5,439.2z M221.4,439.3
	c0-0.6-0.2-1-0.5-1.3c-0.4-0.2-0.8-0.4-1.4-0.4c-0.3,0-0.6,0-0.8,0v3.5h0.5c0.7,0,1.3-0.1,1.6-0.4
	C221.2,440.5,221.4,440,221.4,439.3z"/>
<path class="st0" d="M234,439.1c0,0.4,0,0.8-0.2,1.1c-0.1,0.3-0.2,0.6-0.4,0.8c-0.2,0.2-0.4,0.5-0.6,0.6c-0.2,0.2-0.5,0.3-0.7,0.4
	l2.4,4.1c-0.2,0.1-0.4,0.1-0.6,0.2c-0.2,0-0.4,0.1-0.6,0.1c-0.4,0-0.7-0.1-0.9-0.2c-0.2-0.2-0.5-0.4-0.7-0.8l-1.7-2.9h-0.8v3.7h-2.1
	v-9.9c0.5,0,0.9-0.1,1.4-0.1c0.5,0,0.9,0,1.3,0c1.4,0,2.5,0.2,3.1,0.7C233.7,437.4,234,438.1,234,439.1z M231.9,439.3
	c0-0.6-0.2-1.1-0.5-1.3c-0.3-0.2-0.8-0.4-1.3-0.4c-0.2,0-0.3,0-0.5,0s-0.2,0-0.3,0v3.4h0.7c0.6,0,1.1-0.2,1.4-0.5
	S231.9,439.9,231.9,439.3z"/>
<path class="st0" d="M238,436.3c0.1,0,0.3,0,0.4,0s0.2,0,0.3,0c0.2,0,0.3,0,0.5,0c0.2,0,0.3,0.1,0.4,0.2s0.2,0.2,0.3,0.3
	c0.1,0.2,0.1,0.3,0.1,0.6v8.8h-2V436.3L238,436.3z"/>
<path class="st0" d="M249,446.3h-2.3l-3.3-9.9c0.1,0,0.2-0.1,0.5-0.1c0.2,0,0.4,0,0.7,0c0.4,0,0.7,0.1,0.9,0.3
	c0.2,0.2,0.4,0.5,0.5,0.8l2,6.7l2.1-6.8c0.1-0.3,0.3-0.6,0.5-0.8c0.2-0.2,0.5-0.2,0.9-0.2c0.3,0,0.6,0,1,0.2L249,446.3z"/>
<path class="st0" d="M260.8,446.2l-0.9-2.4h-3.4l-0.8,2.4h-2l3.4-9.8c0.1,0,0.3-0.1,0.5-0.1c0.2,0,0.5-0.1,0.7-0.1
	c0.1,0,0.2,0,0.4,0c0.1,0,0.2,0.1,0.4,0.1c0.1,0.1,0.2,0.2,0.4,0.3c0.1,0.1,0.2,0.3,0.3,0.5l3.2,9H260.8z M258.3,438.1l-1.4,4.2h2.6
	L258.3,438.1z"/>
<path class="st0" d="M267.1,437.9h-3.1l0,0c0-0.1,0-0.2,0-0.3c0-0.1,0-0.2,0-0.3c0-0.2,0.1-0.5,0.3-0.7c0.2-0.2,0.5-0.3,1-0.3h6.9
	c0,0.2,0,0.4,0,0.6c0,0.2-0.1,0.5-0.2,0.7c-0.2,0.2-0.5,0.3-0.9,0.3h-1.8v8.3h-2.1L267.1,437.9L267.1,437.9z"/>
<path class="st0" d="M280.9,444.6c0.5,0,0.8,0.1,1,0.3c0.2,0.2,0.2,0.5,0.2,0.7c0,0.1,0,0.2,0,0.3c0,0.1,0,0.2,0,0.2h-6.4v-9.9h6.2
	c0,0.1,0,0.2,0,0.3c0,0.1,0,0.2,0,0.3c0,0.3-0.1,0.6-0.2,0.8s-0.5,0.2-1,0.2h-2.9v2.4h3.1v1.6h-3.1v2.8L280.9,444.6L280.9,444.6z"/>
<path class="st0" d="M296.8,444.6c0.5,0,0.8,0.1,1,0.3c0.2,0.2,0.2,0.5,0.2,0.7c0,0.1,0,0.2,0,0.3c0,0.1,0,0.2,0,0.2h-6.4v-9.9h6.2
	c0,0.1,0,0.2,0,0.3c0,0.1,0,0.2,0,0.3c0,0.3-0.1,0.6-0.2,0.8c-0.2,0.2-0.5,0.2-1,0.2h-2.9v2.4h3.1v1.6h-3.1v2.8L296.8,444.6
	L296.8,444.6z"/>
<path class="st0" d="M309.8,441.2c0,0.7-0.1,1.4-0.2,2c-0.2,0.6-0.5,1.2-0.8,1.7c-0.4,0.5-0.8,0.9-1.4,1.1s-1.3,0.4-2.1,0.4
	s-1.5-0.1-2.1-0.4s-1-0.7-1.4-1.1c-0.4-0.5-0.6-1-0.8-1.7c-0.2-0.6-0.2-1.3-0.2-2s0.1-1.4,0.3-2c0.2-0.6,0.5-1.1,0.8-1.6
	c0.4-0.5,0.9-0.8,1.4-1.1s1.2-0.4,2.1-0.4c0.8,0,1.4,0.1,2,0.4c0.6,0.2,1,0.6,1.4,1.1c0.4,0.5,0.6,1,0.8,1.6
	C309.7,439.8,309.8,440.5,309.8,441.2z M307.7,441.2c0-0.5,0-0.9-0.1-1.4c-0.1-0.4-0.2-0.8-0.4-1.1c-0.2-0.3-0.4-0.6-0.7-0.8
	c-0.3-0.2-0.7-0.3-1.1-0.3c-0.5,0-0.9,0.1-1.1,0.3c-0.3,0.2-0.6,0.5-0.7,0.8c-0.2,0.3-0.3,0.7-0.4,1.1s-0.1,0.9-0.1,1.4
	c0,0.5,0,0.9,0.1,1.4c0.1,0.5,0.2,0.8,0.4,1.1c0.2,0.3,0.5,0.6,0.7,0.8c0.3,0.2,0.7,0.3,1.1,0.3c0.5,0,0.8-0.1,1.1-0.3
	c0.3-0.2,0.5-0.5,0.7-0.8c0.2-0.3,0.3-0.7,0.4-1.1S307.7,441.7,307.7,441.2z M305.2,447.3c0.1-0.1,0.2-0.2,0.3-0.3
	c0.1-0.1,0.3-0.1,0.5-0.1c0.2,0,0.5,0,0.7,0.2s0.4,0.2,0.6,0.4c0.2,0.2,0.5,0.3,0.8,0.4s0.7,0.2,1.2,0.2c0,0.4-0.1,0.7-0.3,0.9
	c-0.2,0.2-0.5,0.3-0.8,0.3c-0.3,0-0.6-0.1-0.9-0.2c-0.3-0.1-0.6-0.3-0.9-0.5c-0.3-0.2-0.5-0.4-0.7-0.6
	C305.5,447.7,305.3,447.5,305.2,447.3z"/>
<path class="st0" d="M321.5,442.2c0,0.2,0,0.4,0,0.6c0,0.2,0,0.4,0,0.6c0,0.4-0.1,0.8-0.3,1.2c-0.2,0.4-0.4,0.7-0.7,0.9
	s-0.7,0.5-1.1,0.7s-1,0.2-1.6,0.2c-0.7,0-1.2-0.1-1.6-0.2c-0.5-0.1-0.8-0.3-1.1-0.6c-0.3-0.2-0.5-0.6-0.7-0.9s-0.2-0.8-0.3-1.3
	c0-0.2,0-0.4,0-0.5c0-0.2,0-0.4,0-0.6v-5.9c0.1,0,0.3,0,0.4,0s0.2,0,0.3,0c0.2,0,0.3,0,0.5,0s0.3,0.1,0.4,0.2s0.2,0.2,0.3,0.3
	c0.1,0.2,0.1,0.3,0.1,0.6v5c0,0.4,0,0.7,0.1,0.9c0,0.3,0.1,0.5,0.2,0.7c0.1,0.2,0.3,0.4,0.6,0.5s0.5,0.2,0.9,0.2
	c0.7,0,1.1-0.2,1.4-0.6c0.2-0.4,0.4-0.9,0.4-1.6v-6.2c0.1,0,0.3,0,0.4,0s0.2,0,0.3,0c0.2,0,0.3,0,0.5,0c0.2,0,0.3,0.1,0.4,0.2
	c0.1,0.1,0.2,0.2,0.3,0.3c0.1,0.2,0.1,0.3,0.1,0.6L321.5,442.2L321.5,442.2z"/>
<path class="st0" d="M325.8,436.3c0.1,0,0.3,0,0.4,0s0.2,0,0.3,0c0.2,0,0.3,0,0.5,0s0.3,0.1,0.4,0.2s0.2,0.2,0.3,0.3
	c0.1,0.2,0.1,0.3,0.1,0.6v8.8h-2V436.3z"/>
<path class="st0" d="M334.3,437.9h-3.1l0,0c0-0.1,0-0.2,0-0.3c0-0.1,0-0.2,0-0.3c0-0.2,0.1-0.5,0.3-0.7c0.2-0.2,0.5-0.3,1-0.3h6.9
	c0,0.2,0,0.4,0,0.6c0,0.2-0.1,0.5-0.2,0.7c-0.2,0.2-0.5,0.3-0.9,0.3h-1.8v8.3h-2.1L334.3,437.9L334.3,437.9z"/>
<path class="st0" d="M347.2,442.4v3.8h-2v-3.7l-3.2-5.9c0.2-0.1,0.4-0.2,0.6-0.2c0.2,0,0.5-0.1,0.6-0.1c0.4,0,0.6,0.1,0.8,0.2
	s0.3,0.3,0.5,0.6l1.7,3.4l1.7-3.4c0.1-0.2,0.3-0.5,0.5-0.6c0.2-0.2,0.5-0.2,0.8-0.2c0.2,0,0.4,0,0.6,0c0.2,0,0.3,0.1,0.5,0.2
	L347.2,442.4z"/>
</svg>
